:FULLY-SPECIFIED
:FORCE-ALL-JOINTS-BE-3DOF
:DEGREES
1631
root -15.6116 14.5067 19.0397 707.767 -69.5215 371.982
lfemur 14.2128 -11.6707 -10.8909
ltibia 27.3106 0 0
lfoot -21.5811 28.8708 0
ltoes -43.6311 0 0
rfemur -53.1169 -17.5606 9.39832
rtibia 68.5024 0 0
rfoot -10.5148 13.4867 0
rtoes 5.77571 0 0
lowerback 12.4592 4.73113 -7.46316
upperback -0.746514 5.082 -0.911778
thorax -8.47687 2.75992 2.1568
lowerneck 0.559874 -13.1778 -12.8438
upperneck 4.33536 -18.0554 9.94277
head 3.15253 -8.99611 4.21202
lclavicle 2.52898e-14 -1.01477e-14 0
lhumerus -79.405 -13.4306 106.623
lradius 106.988 0 0
lwrist 57.9806 0 0
lhand -10.791 51.3896 0
lfingers 7.12502 0 0
lthumb 15.1742 80.2435 0
rclavicle 2.52898e-14 -1.01477e-14 0
rhumerus 51.1016 -8.16128 -57.284
rradius 6.26777 0 0
rwrist 32.597 0 0
rhand -23.2506 -36.8602 0
rfingers 7.12502 0 0
rthumb 3.22763 -67.2148 0
1632
root -15.5667 14.5139 19.0641 706.965 -69.65 372.895
lfemur 14.0435 -11.5828 -11.0402
ltibia 27.2796 0 0
lfoot -21.5065 28.8782 0
ltoes -43.5912 0 0
rfemur -53.1741 -17.4692 9.38962
rtibia 68.6507 0 0
rfoot -10.6582 13.2309 0
rtoes 5.59169 0 0
lowerback 12.4862 4.67281 -7.47355
upperback -0.75643 5.00457 -0.861039
thorax -8.49315 2.72522 2.23588
lowerneck 0.588031 -13.1225 -12.8005
upperneck 4.27735 -17.982 9.91093
head 3.1281 -8.96283 4.20417
lclavicle 2.64879e-14 -9.57733e-15 0
lhumerus -78.73 -13.6621 106.424
lradius 106.605 0 0
lwrist 57.6466 0 0
lhand -11.7201 51.044 0
lfingers 7.12502 0 0
lthumb 14.2835 80.0105 0
rclavicle 2.64879e-14 -9.57733e-15 0
rhumerus 50.4634 -7.81712 -57.528
rradius 7.35294 0 0
rwrist 31.9706 0 0
rhand -22.8034 -36.5876 0
rfingers 7.12502 0 0
rthumb 3.65715 -66.8977 0
1633
root -15.519 14.521 19.0911 706.231 -69.7876 373.74
lfemur 13.8478 -11.5109 -11.1947
ltibia 27.2919 0 0
lfoot -21.4402 28.8973 0
ltoes -43.5525 0 0
rfemur -53.2183 -17.343 9.35868
rtibia 68.7314 0 0
rfoot -10.7768 12.9614 0
rtoes 5.37967 0 0
lowerback 12.516 4.61055 -7.48581
upperback -0.762973 4.92168 -0.806516
thorax -8.50655 2.68774 2.32129
lowerneck 0.627789 -13.0752 -12.7644
upperneck 4.20773 -17.9204 9.89595
head 3.10174 -8.93596 4.20257
lclavicle 2.75939e-14 -8.98804e-15 0
lhumerus -78.035 -13.9262 106.22
lradius 106.234 0 0
lwrist 57.3148 0 0
lhand -12.6216 50.693 0
lfingers 7.12502 0 0
lthumb 13.4194 79.7697 0
rclavicle 2.75939e-14 -8.98804e-15 0
rhumerus 49.8549 -7.45732 -57.7163
rradius 8.48916 0 0
rwrist 31.2719 0 0
rhand -22.3306 -36.3263 0
rfingers 7.12502 0 0
rthumb 4.11125 -66.5895 0
1634
root -15.4688 14.5278 19.121 705.575 -69.9344 374.503
lfemur 13.6259 -11.4574 -11.354
ltibia 27.3491 0 0
lfoot -21.3833 28.9294 0
ltoes -43.5154 0 0
rfemur -53.2485 -17.1802 9.30378
rtibia 68.739 0 0
rfoot -10.8687 12.6787 0
rtoes 5.13877 0 0
lowerback 12.5485 4.54444 -7.50002
upperback -0.765906 4.83345 -0.748206
thorax -8.51676 2.64751 2.41304
lowerneck 0.680112 -13.037 -12.7365
upperneck 4.12588 -17.8722 9.89945
head 3.07343 -8.91631 4.20782
lclavicle 2.86013e-14 -8.37968e-15 0
lhumerus -77.3235 -14.2244 106.012
lradius 105.878 0 0
lwrist 56.9883 0 0
lhand -13.4918 50.3375 0
lfingers 7.12502 0 0
lthumb 12.5853 79.5218 0
rclavicle 2.86013e-14 -8.37968e-15 0
rhumerus 49.2836 -7.08335 -57.8429
rradius 9.67242 0 0
rwrist 30.501 0 0
rhand -21.833 -36.0782 0
rfingers 7.12502 0 0
rthumb 4.58925 -66.292 0
1635
root -15.4163 14.5344 19.1537 705.01 -70.0904 375.175
lfemur 13.378 -11.4245 -11.5178
ltibia 27.4531 0 0
lfoot -21.3364 28.9759 0
ltoes -43.48 0 0
rfemur -53.2638 -16.9787 9.22322
rtibia 68.6678 0 0
rfoot -10.932 12.3837 0
rtoes 4.86813 0 0
lowerback 12.5836 4.47457 -7.51625
upperback -0.764994 4.73997 -0.686105
thorax -8.5235 2.60457 2.51114
lowerneck 0.745966 -13.0091 -12.7175
upperneck 4.03121 -17.839 9.92309
head 3.04313 -8.90469 4.22051
lclavicle 2.95036e-14 -7.75214e-15 0
lhumerus -76.5989 -14.558 105.8
lradius 105.541 0 0
lwrist 56.6701 0 0
lhand -14.3269 49.9785 0
lfingers 7.12502 0 0
lthumb 11.785 79.2674 0
rclavicle 2.95036e-14 -7.75214e-15 0
rhumerus 48.757 -6.69666 -57.9021
rradius 10.8987 0 0
rwrist 29.6581 0 0
rhand -21.3112 -35.8451 0
rfingers 7.12502 0 0
rthumb 5.09051 -66.007 0
1636
root -15.3618 14.5406 19.1892 704.545 -70.2555 375.742
lfemur 13.1045 -11.4145 -11.6856
ltibia 27.6055 0 0
lfoot -21.3006 29.0381 0
ltoes -43.4468 0 0
rfemur -53.2633 -16.7364 9.11528
rtibia 68.512 0 0
rfoot -10.9647 12.0771 0
rtoes 4.56688 0 0
lowerback 12.6212 4.40101 -7.53459
upperback -0.759999 4.64135 -0.62021
thorax -8.52646 2.55893 2.61561
lowerneck 0.826315 -12.9925 -12.7085
upperneck 3.92309 -17.8224 9.96849
head 3.01082 -8.90188 4.24123
lclavicle 3.02944e-14 -7.10532e-15 0
lhumerus -75.8648 -14.9282 105.587
lradius 105.228 0 0
lwrist 56.3634 0 0
lhand -15.1232 49.617 0
lfingers 7.12502 0 0
lthumb 11.0219 79.0071 0
rclavicle 3.02944e-14 -7.10532e-15 0
rhumerus 48.2826 -6.29873 -57.8882
rradius 12.1639 0 0
rwrist 28.743 0 0
rhand -20.7658 -35.6286 0
rfingers 7.12502 0 0
rthumb 5.61436 -65.7365 0
1637
root -15.3056 14.5464 19.2278 704.194 -70.4298 376.193
lfemur 12.8055 -11.4296 -11.8573
ltibia 27.8082 0 0
lfoot -21.2765 29.1173 0
ltoes -43.4158 0 0
rfemur -53.2459 -16.4514 8.97825
rtibia 68.266 0 0
rfoot -10.965 11.7595 0
rtoes 4.23414 0 0
lowerback 12.6612 4.32387 -7.55512
upperback -0.750685 4.53772 -0.550517
thorax -8.52537 2.51063 2.72646
lowerneck 0.922124 -12.9883 -12.7102
upperneck 3.8009 -17.8239 10.0373
head 2.97645 -8.90871 4.27058
lclavicle 3.09674e-14 -6.43911e-15 0
lhumerus -75.1246 -15.3365 105.373
lradius 104.941 0 0
lwrist 56.0711 0 0
lhand -15.8771 49.254 0
lfingers 7.12502 0 0
lthumb 10.2997 78.7416 0
rclavicle 3.09674e-14 -6.43911e-15 0
rhumerus 47.8679 -5.89103 -57.7953
rradius 13.4641 0 0
rwrist 27.7558 0 0
rhand -20.1977 -35.4307 0
rfingers 7.12502 0 0
rthumb 6.16014 -65.4823 0
1638
root -15.2479 14.5517 19.2694 703.968 -70.6132 376.517
lfemur 12.4815 -11.4721 -12.0323
ltibia 28.0629 0 0
lfoot -21.2652 29.2151 0
ltoes -43.3875 0 0
rfemur -53.2107 -16.1217 8.81041
rtibia 67.9241 0 0
rfoot -10.931 11.4317 0
rtoes 3.86906 0 0
lowerback 12.7036 4.24321 -7.57793
upperback -0.736815 4.42916 -0.477023
thorax -8.51992 2.45971 2.84371
lowerneck 1.03436 -12.9976 -12.7238
upperneck 3.66405 -17.8451 10.1312
head 2.94 -8.92596 4.30914
lclavicle 3.15161e-14 -5.75339e-15 0
lhumerus -74.3817 -15.784 105.16
lradius 104.684 0 0
lwrist 55.7963 0 0
lhand -16.5846 48.8904 0
lfingers 7.12502 0 0
lthumb 9.62204 78.4714 0
rclavicle 3.15161e-14 -5.75339e-15 0
rhumerus 47.5204 -5.47503 -57.6179
rradius 14.7953 0 0
rwrist 26.6967 0 0
rhand -19.6074 -35.2529 0
rfingers 7.12502 0 0
rthumb 6.7272 -65.2462 0
1639
root -15.1891 14.5565 19.3142 703.877 -70.8058 376.702
lfemur 12.1326 -11.5442 -12.2104
ltibia 28.3713 0 0
lfoot -21.2673 29.3326 0
ltoes -43.362 0 0
rfemur -53.1568 -15.7453 8.61004
rtibia 67.4806 0 0
rfoot -10.8608 11.0945 0
rtoes 3.47076 0 0
lowerback 12.7483 4.15913 -7.60309
upperback -0.718153 4.3158 -0.399724
thorax -8.50982 2.40618 2.96737
lowerneck 1.16398 -13.0215 -12.7499
upperneck 3.5119 -17.8875 10.2517
head 2.90145 -8.95444 4.35751
lclavicle 3.19341e-14 -5.04806e-15 0
lhumerus -73.6397 -16.2722 104.948
lradius 104.461 0 0
lwrist 55.5422 0 0
lhand -17.2422 48.5273 0
lfingers 7.12502 0 0
lthumb 8.99241 78.1971 0
rclavicle 3.19341e-14 -5.04806e-15 0
rhumerus 47.2476 -5.05219 -57.35
rradius 16.1533 0 0
rwrist 25.5655 0 0
rhand -18.9958 -35.0971 0
rfingers 7.12502 0 0
rthumb 7.31486 -65.0301 0
1640
root -15.1294 14.5606 19.3621 703.934 -71.0075 376.735
lfemur 11.7592 -11.6482 -12.3913
ltibia 28.7353 0 0
lfoot -21.2839 29.4712 0
ltoes -43.3397 0 0
rfemur -53.0831 -15.3202 8.37545
rtibia 66.9298 0 0
rfoot -10.7524 10.7485 0
rtoes 3.03837 0 0
lowerback 12.7951 4.07172 -7.63068
upperback -0.694462 4.19774 -0.318617
thorax -8.49478 2.35008 3.09746
lowerneck 1.31196 -13.0611 -12.7896
upperneck 3.34384 -17.9528 10.4006
head 2.86074 -8.99495 4.41629
lclavicle 3.22149e-14 -4.323e-15 0
lhumerus -72.902 -16.8023 104.739
lradius 104.276 0 0
lwrist 55.3117 0 0
lhand -17.846 48.1655 0
lfingers 7.12502 0 0
lthumb 8.41444 77.9193 0
rclavicle 3.22149e-14 -4.323e-15 0
rhumerus 47.0571 -4.62399 -56.9859
rradius 17.5343 0 0
rwrist 24.3623 0 0
rhand -18.3634 -34.9652 0
rfingers 7.12502 0 0
rthumb 7.92247 -64.836 0
1641
root -15.069 14.564 19.4133 704.149 -71.2184 376.606
lfemur 11.3614 -11.7863 -12.5744
ltibia 29.1564 0 0
lfoot -21.3156 29.6324 0
ltoes -43.3209 0 0
rfemur -52.9888 -14.8443 8.10491
rtibia 66.266 0 0
rfoot -10.604 10.3944 0
rtoes 2.57102 0 0
lowerback 12.8441 3.98106 -7.66079
upperback -0.665505 4.07509 -0.233699
thorax -8.4745 2.29144 3.234
lowerneck 1.47926 -13.1175 -12.8438
upperneck 3.15927 -18.0424 10.5794
head 2.81786 -9.0483 4.48605
lclavicle 3.23522e-14 -3.57812e-15 0
lhumerus -72.1721 -17.3756 104.534
lradius 104.133 0 0
lwrist 55.108 0 0
lhand -18.3923 47.806 0
lfingers 7.12502 0 0
lthumb 7.89172 77.6387 0
rclavicle 3.23522e-14 -3.57812e-15 0
rhumerus 46.9563 -4.19189 -56.5199
rradius 18.9341 0 0
rwrist 23.0872 0 0
rhand -17.7109 -34.8587 0
rfingers 7.12502 0 0
rthumb 8.54937 -64.6656 0
1642
root -15.0106 14.5666 19.4629 704.336 -71.4625 376.491
lfemur 10.9665 -11.9637 -12.7515
ltibia 29.6186 0 0
lfoot -21.3613 29.8006 0
ltoes -43.3305 0 0
rfemur -52.8943 -14.331 7.80533
rtibia 65.5153 0 0
rfoot -10.4216 10.049 0
rtoes 2.0671 0 0
lowerback 12.895 3.8886 -7.69422
upperback -0.631789 3.94942 -0.147893
thorax -8.44958 2.23107 3.37396
lowerneck 1.65564 -13.1821 -12.9045
upperneck 2.96715 -18.1435 10.7702
head 2.77353 -9.10757 4.56043
lclavicle 3.23044e-14 -2.85297e-15 0
lhumerus -71.4467 -17.9607 104.316
lradius 104.015 0 0
lwrist 54.917 0 0
lhand -18.8776 47.453 0
lfingers 7.12502 0 0
lthumb 7.42759 77.358 0
rclavicle 3.23044e-14 -2.85297e-15 0
rhumerus 46.8888 -3.769 -56.0074
rradius 20.3161 0 0
rwrist 21.758 0 0
rhand -17.0546 -34.7795 0
rfingers 7.12502 0 0
rthumb 9.18001 -64.5223 0
1643
root -14.9564 14.5683 19.5065 704.311 -71.7608 376.564
lfemur 10.5995 -12.1819 -12.915
ltibia 30.1041 0 0
lfoot -21.4185 29.9597 0
ltoes -43.3909 0 0
rfemur -52.8198 -13.7962 7.48582
rtibia 64.7099 0 0
rfoot -10.2134 9.72728 0
rtoes 1.52744 0 0
lowerback 12.9476 3.79577 -7.7315
upperback -0.594144 3.8223 -0.0640463
thorax -8.42099 2.16982 3.51427
lowerneck 1.83024 -13.2455 -12.9634
upperneck 2.77681 -18.2423 10.9543
head 2.72856 -9.16537 4.63276
lclavicle 3.20423e-14 -2.18514e-15 0
lhumerus -70.7202 -18.526 104.069
lradius 103.904 0 0
lwrist 54.7226 0 0
lhand -19.3021 47.1099 0
lfingers 7.12502 0 0
lthumb 7.02172 77.0795 0
rclavicle 3.20423e-14 -2.18514e-15 0
rhumerus 46.7944 -3.36633 -55.507
rradius 21.649 0 0
rwrist 20.3941 0 0
rhand -16.4097 -34.7271 0
rfingers 7.12502 0 0
rthumb 9.79967 -64.4069 0
1644
root -14.9059 14.5692 19.5443 704.091 -72.1091 376.811
lfemur 10.2576 -12.4375 -13.0657
ltibia 30.6121 0 0
lfoot -21.4865 30.1101 0
ltoes -43.4979 0 0
rfemur -52.7632 -13.2413 7.14792
rtibia 63.8539 0 0
rfoot -9.98082 9.4274 0
rtoes 0.954832 0 0
lowerback 13.002 3.7026 -7.77233
upperback -0.552825 3.69387 0.0179584
thorax -8.38897 2.10776 3.65485
lowerneck 2.00307 -13.3079 -13.0205
upperneck 2.58817 -18.3388 11.1321
head 2.68303 -9.2218 4.70318
lclavicle 3.15774e-14 -1.57156e-15 0
lhumerus -69.9927 -19.0728 103.795
lradius 103.799 0 0
lwrist 54.5248 0 0
lhand -19.6678 46.7765 0
lfingers 7.12502 0 0
lthumb 6.67219 76.8035 0
rclavicle 3.15774e-14 -1.57156e-15 0
rhumerus 46.675 -2.98216 -55.0173
rradius 22.9368 0 0
rwrist 18.9974 0 0
rhand -15.7757 -34.7001 0
rfingers 7.12502 0 0
rthumb 10.4089 -64.318 0
